<svg id="Layer_1" enable-background="new 0 0 512.073 512.073" height="512" viewBox="0 0 512.073 512.073" width="512" xmlns="http://www.w3.org/2000/svg"><g><path d="m460.301 367.259c0-16.164 3.162-31.921 9.397-46.833l42.375-101.335-32.343 8.56c-64.605 17.103-109.728 75.723-109.728 142.554v69.477h90.298v-72.423z" fill="#a5e887"/><path d="m460.301 367.259c0-16.164 3.162-31.921 9.397-46.833l42.375-101.335-32.343 8.56c-64.605 17.103-109.728 75.723-109.728 142.554v69.477h90.298v-72.423z" fill="#00cc76"/><path d="m32.341 227.65-32.341-8.56 42.374 101.335c6.236 14.914 9.398 30.67 9.398 46.834v72.422h90.297v-69.477c0-66.831-45.121-125.452-109.728-142.554z" fill="#a5e887"/><path d="m400.003 299.205c0-16.567 3.241-32.717 9.633-48.001l43.056-102.964-32.409 8.581c-65.894 17.443-111.914 77.232-111.914 145.396v137.466h91.635v-140.478z" fill="#00cc76"/><path d="m400.003 299.205c0-16.567 3.241-32.717 9.633-48.001l43.056-102.964-32.409 8.581c-65.894 17.443-111.914 77.232-111.914 145.396v137.466h91.635v-140.478z" fill="#00aa95"/><path d="m91.791 156.82-32.41-8.582 43.056 102.965c6.391 15.284 9.632 31.434 9.632 48.001v140.477h91.635v-137.466c0-68.163-46.021-127.952-111.913-145.395z" fill="#00cc76"/><path d="m348.998 167.277 45.949-109.885-29.417 7.788c-49.665 13.147-89.174 47.924-109.494 92.567-20.32-44.643-59.829-79.419-109.494-92.567l-29.417-7.788 45.949 109.885c7.054 16.867 10.63 34.689 10.63 52.972v219.432h164.664v-219.431c0-18.283 3.576-36.105 10.63-52.973z" fill="#a5e887"/><path d="m365.53 65.18c-49.665 13.147-89.174 47.924-109.494 92.567v281.935h82.332v-219.432c0-18.283 3.576-36.105 10.63-52.972l45.949-109.885z" fill="#00cc76"/><g><path d="m.036 424.681h512v30h-512z" fill="#00aa95"/></g><path d="m256.036 424.681h256v30h-256z" fill="#008285"/></g></svg>